<?xml version="1.0" encoding="utf-8"?>
<!-- Generator: Adobe Illustrator 25.2.1, SVG Export Plug-In . SVG Version: 6.00 Build 0)  -->
<svg version="1.1" id="XMLID_199_" xmlns="http://www.w3.org/2000/svg" xmlns:xlink="http://www.w3.org/1999/xlink" x="0px" y="0px"
	 viewBox="0 0 800 800" style="enable-background:new 0 0 800 800;" xml:space="preserve">
<style type="text/css">
	.st0{fill:#FFFFFF;}
</style>
<g>
	<path class="st0" d="M600,665H200V548.3c0-80,43.3-150,106.7-186.7c-23.3-23.3-40-56.7-40-93.3c0-73.3,60-133.3,133.3-133.3
		s133.3,60,133.3,133.3c0,36.7-13.3,70-40,93.3c63.3,36.7,106.7,110,106.7,186.7V665z"/>
	<path class="st0" d="M266.7,598.3h266.7v-50c0-80-60-150-133.3-150c-70,0-133.3,70-133.3,150V598.3z"/>
	<circle class="st0" cx="400" cy="265" r="66.7"/>
</g>
</svg>
